REM DIRINDEX 1\2,1\3,1\4,1\5
REM DIRNAME cjc004,folder01,folder02,folder03,folder04
TITLE ""
FILE "1Q_t_0010-0019.mp3" MP3
  TRACK 01 AUDIO
    TITLE "3:cjc004_0930"
    INDEX 01 00:00:00
  TRACK 02 AUDIO
    TITLE "0:"
    INDEX 01 00:01:09
  TRACK 03 AUDIO
    TITLE "4:cjc004_0931"
    INDEX 01 00:01:34
  TRACK 04 AUDIO
    TITLE "0:"
    INDEX 01 00:02:40
  TRACK 05 AUDIO
    TITLE "5:cjc004_0932"
    INDEX 01 00:02:69
  TRACK 06 AUDIO
    TITLE "0:"
    INDEX 01 00:07:15
  TRACK 07 AUDIO
    TITLE "3:cjc004_0933"
    INDEX 01 00:07:64
  TRACK 08 AUDIO
    TITLE "0:"
    INDEX 01 00:08:73
  TRACK 09 AUDIO
    TITLE "4:cjc004_0934"
    INDEX 01 00:09:12
  TRACK 10 AUDIO
    TITLE "0:"
    INDEX 01 00:10:14
  TRACK 11 AUDIO
    TITLE "5:cjc004_0935"
    INDEX 01 00:10:45
  TRACK 12 AUDIO
    TITLE "0:"
    INDEX 01 00:14:62
  TRACK 13 AUDIO
    TITLE "3:cjc004_0936"
    INDEX 01 00:15:40
  TRACK 14 AUDIO
    TITLE "0:"
    INDEX 01 00:16:71
  TRACK 15 AUDIO
    TITLE "4:cjc004_0937"
    INDEX 01 00:17:02
  TRACK 16 AUDIO
    TITLE "0:"
    INDEX 01 00:18:29
  TRACK 17 AUDIO
    TITLE "5:cjc004_0938"
    INDEX 01 00:18:52
  TRACK 18 AUDIO
    TITLE "0:"
    INDEX 01 00:24:24
  TRACK 19 AUDIO
    TITLE "3:cjc004_0939"
    INDEX 01 00:25:03
  TRACK 20 AUDIO
    TITLE "0:"
    INDEX 01 00:26:24
  TRACK 21 AUDIO
    TITLE "4:cjc004_0940"
    INDEX 01 00:26:32
  TRACK 22 AUDIO
    TITLE "0:"
    INDEX 01 00:27:59
  TRACK 23 AUDIO
    TITLE "5:cjc004_0941"
    INDEX 01 00:28:12
  TRACK 24 AUDIO
    TITLE "0:"
    INDEX 01 00:34:10
  TRACK 25 AUDIO
    TITLE "3:cjc004_0942"
    INDEX 01 00:34:67
  TRACK 26 AUDIO
    TITLE "0:"
    INDEX 01 00:36:01
  TRACK 27 AUDIO
    TITLE "4:cjc004_0943"
    INDEX 01 00:36:19
  TRACK 28 AUDIO
    TITLE "0:"
    INDEX 01 00:37:67
  TRACK 29 AUDIO
    TITLE "5:cjc004_0944"
    INDEX 01 00:38:18
  TRACK 30 AUDIO
    TITLE "0:"
    INDEX 01 00:43:35
  TRACK 31 AUDIO
    TITLE "3:cjc004_0945"
    INDEX 01 00:44:20
  TRACK 32 AUDIO
    TITLE "0:"
    INDEX 01 00:45:26
  TRACK 33 AUDIO
    TITLE "4:cjc004_0946"
    INDEX 01 00:45:45
  TRACK 34 AUDIO
    TITLE "0:"
    INDEX 01 00:47:17
  TRACK 35 AUDIO
    TITLE "5:cjc004_0947"
    INDEX 01 00:47:44
  TRACK 36 AUDIO
    TITLE "0:"
    INDEX 01 00:54:56
  TRACK 37 AUDIO
    TITLE "3:cjc004_0948"
    INDEX 01 00:55:30
  TRACK 38 AUDIO
    TITLE "0:"
    INDEX 01 00:56:41
  TRACK 39 AUDIO
    TITLE "4:cjc004_0949"
    INDEX 01 00:56:69
  TRACK 40 AUDIO
    TITLE "0:"
    INDEX 01 00:58:11
  TRACK 41 AUDIO
    TITLE "5:cjc004_0950"
    INDEX 01 00:58:38
  TRACK 42 AUDIO
    TITLE "0:"
    INDEX 01 01:04:35
  TRACK 43 AUDIO
    TITLE "3:cjc004_0951"
    INDEX 01 01:05:19
  TRACK 44 AUDIO
    TITLE "0:"
    INDEX 01 01:06:34
  TRACK 45 AUDIO
    TITLE "4:cjc004_0952"
    INDEX 01 01:06:63
  TRACK 46 AUDIO
    TITLE "0:"
    INDEX 01 01:08:21
  TRACK 47 AUDIO
    TITLE "5:cjc004_0953"
    INDEX 01 01:08:42
  TRACK 48 AUDIO
    TITLE "0:"
    INDEX 01 01:13:16
  TRACK 49 AUDIO
    TITLE "3:cjc004_0954"
    INDEX 01 01:13:69
  TRACK 50 AUDIO
    TITLE "0:"
    INDEX 01 01:15:07
  TRACK 51 AUDIO
    TITLE "4:cjc004_0955"
    INDEX 01 01:15:29
  TRACK 52 AUDIO
    TITLE "0:"
    INDEX 01 01:16:63
  TRACK 53 AUDIO
    TITLE "5:cjc004_0956"
    INDEX 01 01:17:16
  TRACK 54 AUDIO
    TITLE "0:"
    INDEX 01 01:22:01
  TRACK 55 AUDIO
    TITLE "3:cjc004_0957"
    INDEX 01 01:22:58
  TRACK 56 AUDIO
    TITLE "0:"
    INDEX 01 01:23:48
  TRACK 57 AUDIO
    TITLE "4:cjc004_0958"
    INDEX 01 01:24:04
  TRACK 58 AUDIO
    TITLE "0:"
    INDEX 01 01:25:31
  TRACK 59 AUDIO
    TITLE "5:cjc004_0959"
    INDEX 01 01:25:60
  TRACK 60 AUDIO
    TITLE "0:"
    INDEX 01 01:30:34
